<svg id="Icon_Phone" data-name="Icon/Phone" xmlns="http://www.w3.org/2000/svg" width="20" height="20" viewBox="0 0 20 20">
  <path id="Phone" d="M12.732,18c-.066,0-.135,0-.2-.006a8.375,8.375,0,0,1-3.268-.95,17.86,17.86,0,0,1-5.9-4.612,16.186,16.186,0,0,1-2.873-4.8A6.384,6.384,0,0,1,.013,4.967,2.171,2.171,0,0,1,.692,3.5c.268-.253.532-.518.787-.775.18-.181.365-.367.551-.548a1.357,1.357,0,0,1,.951-.432,1.367,1.367,0,0,1,.954.432c.362.355.726.723,1.078,1.078l.348.347c.231.23.467.465.7.7a1.263,1.263,0,0,1,0,1.952l-.338.339c-.32.322-.65.654-.982.974a.269.269,0,0,0-.066.351A7.746,7.746,0,0,0,5.868,9.829a13.633,13.633,0,0,0,3.33,3.03c.168.1.349.194.524.28.114.056.232.115.346.177a.33.33,0,0,0,.154.046.3.3,0,0,0,.215-.115c.4-.413.814-.825,1.215-1.224l.111-.111a1.256,1.256,0,0,1,1.9,0c.713.706,1.433,1.425,2.138,2.138a1.277,1.277,0,0,1-.007,1.938c-.133.134-.27.267-.4.4-.273.266-.555.54-.811.828A2.344,2.344,0,0,1,12.732,18ZM18,8.944H16.3A7.249,7.249,0,0,0,9.056,1.7V0A8.954,8.954,0,0,1,18,8.943Zm-3.2,0H13.1A4.044,4.044,0,0,0,9.056,4.9v-1.7a5.756,5.756,0,0,1,5.749,5.748Z" transform="translate(1 1)" fill="#bcbfc2"/>
</svg>
