<svg xmlns="http://www.w3.org/2000/svg" width="49.601" height="38.409" viewBox="0 0 49.601 38.409">
  <path id="Trazado_1832" data-name="Trazado 1832" d="M95.117,67.722h-3.49A2.029,2.029,0,0,0,89.6,69.75v2.039H88.326v-5.48a2.087,2.087,0,0,0-2.271-2.341h-7.87l.075-1.544h1.834a2.076,2.076,0,0,0,2.028-2.116V57.319A2.076,2.076,0,0,0,80.094,55.2H68a2.075,2.075,0,0,0-2.028,2.115v2.989A2.075,2.075,0,0,0,68,62.424h1.8l.093,1.544H67.685a4.365,4.365,0,0,0-3.611,1.69c-.8.963-2.91,3.442-3.148,3.716H57.859A2.12,2.12,0,0,0,55.6,71.637V74.3H54.255V72.357a2.03,2.03,0,0,0-2.028-2.027H49.572a2.03,2.03,0,0,0-2.028,2.027V85.076A2.03,2.03,0,0,0,49.572,87.1h2.655a2.03,2.03,0,0,0,2.028-2.028V83.137H55.6v2.78a2.014,2.014,0,0,0,2.268,2.258h3.07s2.673,3.1,3.565,4.19a3.415,3.415,0,0,0,2.735,1.248H79.773A3.6,3.6,0,0,0,82.6,92.424c1.1-1.3,2.445-3,4.222-5.352a4.912,4.912,0,0,0,1.486-3.391H89.6V85.72a2.03,2.03,0,0,0,2.028,2.028h3.49a2.03,2.03,0,0,0,2.028-2.028V69.75A2.029,2.029,0,0,0,95.117,67.722Zm-23.43-7.306H67.972V57.2l12.151,0v3.226l-3.768,0-.171,3.544H71.9ZM95.131,85.734H91.6V81.681H86.326v1.44a3.127,3.127,0,0,1-1.016,2.645c-2.848,3.689-2.839,3.7-4.134,5.255a1.724,1.724,0,0,1-1.4.593c-4.182,0-8.248-.036-12.546,0a1.415,1.415,0,0,1-1.182-.52c-.9-1.1-4.191-4.919-4.191-4.919l-4.251-.014L57.6,81.137H52.241V85.09H49.558V72.344h2.7V76.3H57.6V71.371l4.244,0s3.069-3.583,3.809-4.49a2.283,2.283,0,0,1,2.031-.916l18.628,0,.013,7.817h5.287V69.736h3.518ZM83.572,69.648a.95.95,0,0,1-.95.95H68.384s-1.29,1.648-1.608,2.042a.965.965,0,0,1-1.334.159.949.949,0,0,1-.159-1.334l1.893-2.4a.951.951,0,0,1,.747-.363h14.7A.95.95,0,0,1,83.572,69.648Z" transform="translate(-47.544 -55.204)" fill="#4b5157"/>
</svg>
