<svg xmlns="http://www.w3.org/2000/svg" width="46.22" height="40.05" viewBox="0 0 46.22 40.05">
  <path id="Trazado_1850" data-name="Trazado 1850" d="M156.263,334.044h-16.1a1.449,1.449,0,0,1-1.447-1.448v-3.884a1.449,1.449,0,0,1,1.447-1.448h16.1a1.449,1.449,0,0,1,1.447,1.448V332.6A1.449,1.449,0,0,1,156.263,334.044Zm-15.549-2h15v-2.78h-15Zm14.04-24.446-5.005,6.223a3.7,3.7,0,0,0-1.39-.29,3.646,3.646,0,1,0,2.948,1.545l5-6.224a1,1,0,1,0-1.558-1.254Zm-6.4,11.165a1.641,1.641,0,0,1-1.614-1.634,1.615,1.615,0,1,1,1.614,1.634Zm-.1-24.769a23.113,23.113,0,0,0-19.87,34.985l.007,0,0,0a1.025,1.025,0,0,0,1.371.348c.58-.354,7.974-4.747,7.974-4.747a1,1,0,0,0-1.023-1.719L134.8,324a15.1,15.1,0,0,1-1.716-7.021c0-.454.03-.9.07-1.343l2.158.373a1,1,0,1,0,.341-1.971l-2.184-.378a15.107,15.107,0,0,1,4.175-7.456l1.408,1.676a1,1,0,0,0,1.531-1.287l-1.414-1.683a15.022,15.022,0,0,1,8.007-2.976l0,2.194a1,1,0,0,0,1,1h0a1,1,0,0,0,1-1l0-2.2a14.919,14.919,0,0,1,13.757,11.68l-2.179.373a1,1,0,0,0-.817,1.155,1.034,1.034,0,0,0,1.154.816c.451-.072,2.17-.371,2.17-.371.044.48.069.963.068,1.45a15.1,15.1,0,0,1-1.868,7.247l-1.952-1.131a1,1,0,1,0-1,1.731s7.406,4.306,8.047,4.66a1.01,1.01,0,0,0,1.349-.342l0,0a23.117,23.117,0,0,0-19.657-35.2ZM166.689,327.3l-3.493-2.023a17.122,17.122,0,1,0-30.11-.258l-3.467,2.064a21.109,21.109,0,1,1,37.07.217Z" transform="translate(-125.102 -293.994)" fill="#30363d"/>
</svg>
