<svg xmlns="http://www.w3.org/2000/svg" width="36.898" height="40.608" viewBox="0 0 36.898 40.608">
  <path id="Trazado_1841" data-name="Trazado 1841" d="M59.7,142.015a1.324,1.324,0,1,1,1.327,1.324A1.326,1.326,0,0,1,59.7,142.015Zm1.327,8.326a1.324,1.324,0,1,0-1.327-1.324A1.322,1.322,0,0,0,61.025,150.341Zm0,4.319a1.324,1.324,0,1,0,1.322,1.323A1.325,1.325,0,0,0,61.025,154.66Zm6.269-24.939a1.324,1.324,0,1,0,1.324,1.325A1.324,1.324,0,0,0,67.294,129.721Zm20.954,17.273v10.1h-5.01v6.241a3.535,3.535,0,0,1-3.531,3.531H54.881a3.535,3.535,0,0,1-3.531-3.531V133.291a3.535,3.535,0,0,1,3.531-3.531h7.736a4.818,4.818,0,0,1,9.269,0h7.821a3.535,3.535,0,0,1,3.531,3.531l-.019,9.733H74.238v12.3H86.483v-8.333ZM74.841,133.54h2.7a1.767,1.767,0,0,1,1.766,1.766v5.953h2.163v-7.968a1.767,1.767,0,0,0-1.766-1.766H74.841Zm-13.462,2.075H73.163v-4.09l-2.909-.01a2.907,2.907,0,0,0,.048-.467,3.052,3.052,0,1,0-6.055.467l-2.869.01Zm-1.677.84v-1.149H57.042v25.871h20.5v-4.083l-13.356-.007v-1.678h8.287v-5.435H64.186v-1.678h8.287v-5.358H64.186v-1.677H77.543l0-5.953h-2.7v1.149a.839.839,0,0,1-.839.839H60.54A.839.839,0,0,1,59.7,136.455Zm21.772,20.638H79.31v4.083a1.767,1.767,0,0,1-1.766,1.766h-20.5a1.767,1.767,0,0,1-1.766-1.766V135.306a1.767,1.767,0,0,1,1.766-1.766H59.7v-2.014h-4.82a1.767,1.767,0,0,0-1.766,1.766v30.043a1.767,1.767,0,0,0,1.766,1.766H79.707a1.767,1.767,0,0,0,1.766-1.766Zm6.211-14.82-1.487-.952-5.869,9.168-3.374-2.681-1.1,1.382,4.906,3.9Z" transform="translate(-51.35 -126.258)" fill="#4b5157"/>
</svg>
