<svg xmlns="http://www.w3.org/2000/svg" width="80.801" height="58.319" viewBox="0 0 80.801 58.319">
  <path id="Trazado_1839" data-name="Trazado 1839" d="M282.749,145.947l-36.277-18.613a4.12,4.12,0,0,0-3.764,0l-36.272,18.613a4.123,4.123,0,0,0,3.765,7.336c1.017-.527,2.931-1.5,2.931-1.5v31.556a1.178,1.178,0,1,0,2.356,0V150.573l29.1-14.935,29.372,15.07v33.313a1.178,1.178,0,0,0,2.356,0v-32.1l2.667,1.369a4.124,4.124,0,1,0,3.764-7.339Zm-.31,4.476a1.754,1.754,0,0,1-2.379.766c-.8-.416-35.471-18.2-35.471-18.2l-35.464,18.2a1.767,1.767,0,0,1-1.614-3.145l36.272-18.613a1.763,1.763,0,0,1,1.613,0l36.277,18.613A1.79,1.79,0,0,1,282.439,150.423Zm-21.771,34.069h-3.714a2.914,2.914,0,0,1-2.911-2.911v-3.761h-18.9v3.761a2.914,2.914,0,0,1-2.911,2.911h-3.717a2.915,2.915,0,0,1-2.911-2.911v-3.761h-.71a4.958,4.958,0,0,1-3.862-1.738,4.771,4.771,0,0,1-.947-4.193c.437-1.419,1.264-4.253,1.851-6.194a7.111,7.111,0,0,1,3.728-4.828l2.942-9.944a7.962,7.962,0,0,1,7.1-5.312h17.782a7.933,7.933,0,0,1,7.068,5.223l2.974,10.033a7.136,7.136,0,0,1,3.725,4.827c.5,1.821,1.488,5.006,1.853,6.194a4.723,4.723,0,0,1-.947,4.192,4.972,4.972,0,0,1-3.864,1.74h-.709v3.761A2.915,2.915,0,0,1,260.668,184.493Zm-27.885-9.028H256.4v6.117a.563.563,0,0,0,.555.555h3.714a.563.563,0,0,0,.556-.555v-6.117h3.066a2.439,2.439,0,0,0,2.528-2.991c-.39-1.429-1.414-4.666-1.861-6.234a4.98,4.98,0,0,0-3.4-3.714l-3.236-10.933a5.588,5.588,0,0,0-4.839-3.624H235.7a5.618,5.618,0,0,0-4.869,3.714l-3.2,10.844a5.046,5.046,0,0,0-3.4,3.715c-.534,1.845-1.35,4.6-1.859,6.231a2.416,2.416,0,0,0,2.526,2.993h3.067v6.117a.563.563,0,0,0,.555.555h3.717a.563.563,0,0,0,.555-.555Zm-.144-5.453a1.729,1.729,0,1,0-1.728,1.728A1.732,1.732,0,0,0,232.639,170.012Zm27.361,0a1.73,1.73,0,1,0-1.73,1.728A1.728,1.728,0,0,0,260,170.012Zm-9.809,0a1.177,1.177,0,0,0-1.178-1.178h-9.205a1.178,1.178,0,1,0,0,2.356h9.205A1.178,1.178,0,0,0,250.19,170.012Zm7.637-7.519H231.335s2.214-8.221,2.6-9.435a2.782,2.782,0,0,1,2.737-2.206H252.51a3.2,3.2,0,0,1,2.731,2.19C255.548,154.087,257.827,162.493,257.827,162.493Zm-23.433-2.356h20.361c-.632-2.343-1.566-5.785-1.754-6.361-.1-.3-.328-.57-.584-.57H236.67c-.138,0-.289,0-.518.648C235.9,154.552,235,157.871,234.395,160.136Z" transform="translate(-204.191 -126.88)" fill="#4592ff"/>
</svg>
