<svg xmlns="http://www.w3.org/2000/svg" width="45.5" height="51.982" viewBox="0 0 45.5 51.982">
  <path id="Trazado_1835" data-name="Trazado 1835" d="M318.752,55.871l2.194,0-1.308,5.248a1.8,1.8,0,0,0,.952,2.051,1.873,1.873,0,0,0,2.206-.5c.5-.654,8.821-11.161,8.821-11.161A1.8,1.8,0,0,0,330.2,48.6h-1.738l1.392-4.434a1.84,1.84,0,0,0-.826-2.1,1.871,1.871,0,0,0-2.23.36c-.616.679-9.388,10.449-9.388,10.449a1.8,1.8,0,0,0,1.337,3Zm9.39-12.248L326.015,50.4h4.19l-8.821,11.161,1.866-7.48-4.5-.006ZM342,65.938h-5.113V62.212a.951.951,0,0,0-.951-.95h-7.5a.951.951,0,0,0-.95.95v3.726H315.864V62.212a.951.951,0,0,0-.95-.95h-7.5a.951.951,0,0,0-.95.95v3.726h-5.113a2.428,2.428,0,0,0-2.425,2.425v2.65a2.423,2.423,0,0,0,1.091,2.024v17.7a3.084,3.084,0,0,0,3.081,3.081h37.156a3.084,3.084,0,0,0,3.081-3.081v-17.7a2.426,2.426,0,0,0,1.091-2.024v-2.65A2.428,2.428,0,0,0,342,65.938Zm-12.611-2.775h5.6v2.775h-5.6Zm-21.025,0h5.6v2.775h-5.6Zm34.062,7.85a.427.427,0,0,1-.426.425h-.665v19.3a1.084,1.084,0,0,1-1.081,1.081H303.1a1.084,1.084,0,0,1-1.081-1.081v-19.3h-.666a.426.426,0,0,1-.425-.425v-2.65a.426.426,0,0,1,.425-.425H342a.427.427,0,0,1,.426.425Zm-34.8,7.55h9v2.1h-9Zm24.653,0h3.449v2.1h-3.449v3.449h-2.1V80.663h-3.452v-2.1h3.452V75.112h2.1Z" transform="translate(-298.928 -41.841)" fill="#4b5157"/>
</svg>
