<svg xmlns="http://www.w3.org/2000/svg" width="60.475" height="40.022" viewBox="0 0 60.475 40.022">
  <path id="Trazado_1851" data-name="Trazado 1851" d="M138.68,80.108a1.334,1.334,0,1,1-1.331-1.333A1.332,1.332,0,0,1,138.68,80.108Zm-6.394-1.333a1.334,1.334,0,1,0,1.335,1.333A1.334,1.334,0,0,0,132.285,78.775Zm0-2.059a1.334,1.334,0,1,0-1.333-1.334A1.334,1.334,0,0,0,132.284,76.716ZM142.9,52.038V68.459c0,2.762-1.434,3.328-3.587,3.328H124.756c-1.232,0-3.8,0-3.8-3.328V52.038a2.7,2.7,0,0,1,2.981-2.958h16A2.694,2.694,0,0,1,142.9,52.038Zm-1.778,5.905h-4.189a.442.442,0,0,0-.216.079s-3.091,2.575-3.385,2.811a1.03,1.03,0,0,1-.934.2,1.013,1.013,0,0,1-.631-.715l-1.382-5.724-2.433,3.25a1.6,1.6,0,0,1-1.2.6h-4.014v4.275h18.385Zm-18.385-5.905v4.941h4.014l3.165-4.2a.887.887,0,0,1,1.618.333l1.471,6.094,2.779-2.309a1.96,1.96,0,0,1,1.149-.415h4.189V52.038c0-.9-.284-1.18-1.182-1.18h-16C123.043,50.858,122.737,51.14,122.737,52.038Zm18.385,16.421V64.406H122.737v4.052c0,1.369.384,1.55,2.019,1.55h14.557C140.951,70.008,141.122,69.828,141.122,68.459Zm-3.336-2.691A1.334,1.334,0,1,0,139.12,67.1,1.335,1.335,0,0,0,137.786,65.767ZM177.492,83.7h-.638v3.107a2.3,2.3,0,0,1-2.292,2.291h-3.006a2.294,2.294,0,0,1-2.29-2.291V83.7H153.73v3.107a2.293,2.293,0,0,1-2.29,2.291h-3.008a2.294,2.294,0,0,1-2.29-2.291V83.7H145.5a3.816,3.816,0,0,1-3.83-4.72c.356-1.192,1.182-3.928,1.5-5.014a5.97,5.97,0,0,1,3.006-3.876l2.391-8.074a6.372,6.372,0,0,1,5.682-4.252h14.5a6.349,6.349,0,0,1,5.659,4.185l2.413,8.14a5.455,5.455,0,0,1,3.008,3.876c.443,1.495,1.045,3.523,1.5,5.014A3.831,3.831,0,0,1,177.492,83.7Zm2.109-4.281c-.334-1.021-1.2-3.757-1.506-5.042a4.156,4.156,0,0,0-2.762-3.035l-2.611-8.82a4.585,4.585,0,0,0-3.977-2.978h-14.5a4.607,4.607,0,0,0-4,3.045l-2.589,8.753a4.174,4.174,0,0,0-2.76,3.036c-.306,1.285-1.275,4.261-1.507,5.041a2.043,2.043,0,0,0,2.107,2.5h2.419v4.886a.519.519,0,0,0,.512.513h3.008a.519.519,0,0,0,.512-.513V81.925h19.092v4.886a.519.519,0,0,0,.512.513h3.006a.514.514,0,0,0,.514-.513V81.925h2.417A2.023,2.023,0,0,0,179.6,79.422Zm-29.227-3.307a1.334,1.334,0,1,0,1.333,1.334A1.334,1.334,0,0,0,150.374,76.116Zm22.248,0a1.334,1.334,0,1,0,1.334,1.334A1.334,1.334,0,0,0,172.622,76.116Zm-7.2.443h-7.848a.889.889,0,0,0,0,1.778h7.848a.889.889,0,0,0,0-1.778Zm6.755-5.26H150.8s1.744-6.619,2.076-7.546a2.255,2.255,0,0,1,2.155-1.744h12.928a2.566,2.566,0,0,1,2.149,1.727C170.356,64.484,172.177,71.3,172.177,71.3ZM169.86,69.52c-.509-1.9-1.284-4.758-1.439-5.231a.931.931,0,0,0-.519-.508l-12.869,0c-.09,0-.278,0-.48.566s-.953,3.331-1.442,5.167Z" transform="translate(-120.959 -49.08)" fill="#4b5157"/>
</svg>
