<svg id="Icon_Key" data-name="Icon/Key" xmlns="http://www.w3.org/2000/svg" width="20" height="20" viewBox="0 0 20 20">
  <path id="Key" d="M4.791,18a1.561,1.561,0,0,1-1.2-.557L2.58,16.24a1.562,1.562,0,0,1-2.209-.184,1.584,1.584,0,0,1,.184-2.22L8.066,7.443a5.2,5.2,0,1,1,4.722,3.032,5.184,5.184,0,0,1-2.6-.706L8.01,11.62l.641.76A1.584,1.584,0,0,1,8.467,14.6a1.563,1.563,0,0,1-2.21-.184l-.641-.76-.644.547,1.013,1.2a1.584,1.584,0,0,1-.184,2.22A1.561,1.561,0,0,1,4.791,18ZM13.625,3A1.633,1.633,0,1,0,15.25,4.633,1.631,1.631,0,0,0,13.625,3Z" transform="translate(1 1)" fill="#bcbfc2"/>
</svg>
